<?xml version="1.0" encoding="UTF-8" standalone="no"?>
<!-- Created with Inkscape (http://www.inkscape.org/) -->

<svg
   version="1.1"
   id="svg1"
   width="529.13361"
   height="529.13342"
   viewBox="0 0 529.13361 529.13342"
   sodipodi:docname="ustc_logo_fig.svg"
   inkscape:version="1.3.2 (091e20ef0f, 2023-11-25)"
   xmlns:inkscape="http://www.inkscape.org/namespaces/inkscape"
   xmlns:sodipodi="http://sodipodi.sourceforge.net/DTD/sodipodi-0.dtd"
   xmlns="http://www.w3.org/2000/svg"
   xmlns:svg="http://www.w3.org/2000/svg">
  <defs
     id="defs1" />
  <sodipodi:namedview
     id="namedview1"
     pagecolor="#ffffff"
     bordercolor="#666666"
     borderopacity="1.0"
     inkscape:showpageshadow="2"
     inkscape:pageopacity="0.0"
     inkscape:pagecheckerboard="0"
     inkscape:deskcolor="#d1d1d1"
     inkscape:zoom="0.85396156"
     inkscape:cx="251.76777"
     inkscape:cy="248.25473"
     inkscape:window-width="1920"
     inkscape:window-height="1080"
     inkscape:window-x="0"
     inkscape:window-y="0"
     inkscape:window-maximized="1"
     inkscape:current-layer="g1">
    <inkscape:page
       x="0"
       y="0"
       inkscape:label="1"
       id="page1"
       width="529.13361"
       height="529.13342"
       margin="0"
       bleed="0" />
  </sodipodi:namedview>
  <g
     id="g1"
     inkscape:groupmode="layer"
     inkscape:label="1"
     transform="translate(-37.825066,-37.79068)">
    <path
       id="path1"
       d="M 3080.26,1149.81 C 2836.01,972.355 2527.6,947 2268.07,1055.8 c -259.55,-108.851 -568.03,-83.519 -812.3,93.96 -244.26,177.46 -363.68,462.94 -340.39,743.39 -183.728,213.2 -254.958,514.42 -161.653,801.58 93.293,287.13 327.923,488.93 601.833,553.45 145.99,240.62 410.44,401.43 712.38,401.43 301.91,0 566.35,-160.78 712.36,-401.34 273.97,-64.5 508.61,-266.31 601.91,-553.47 93.29,-287.12 22.09,-588.3 -161.57,-801.5 23.32,-280.48 -96.1,-566.01 -340.38,-743.49 z m -812.31,2251.77 c 626.12,0 1133.87,-507.75 1133.87,-1133.86 0,-626.11 -507.75,-1133.86 -1133.87,-1133.86 -626.11,0 -1133.86,507.75 -1133.86,1133.86 0,626.11 507.75,1133.86 1133.86,1133.86"
       style="fill:#254aa5;fill-opacity:1;fill-rule:evenodd;stroke:none"
       transform="matrix(0.13333333,0,0,-0.13333333,0,604.72)" />
    <path
       id="path2"
       d="m 1586.68,2342.55 h -42.88 v 161.65 c -15.67,-14.7 -34.12,-25.53 -55.37,-32.51 v 38.92 c 11.14,3.64 23.34,10.57 36.46,20.78 13.13,10.26 22.15,22.19 26.99,35.84 h 34.8 z m 82.38,51.73 41.52,4.58 c 1.04,-8.44 3.7,-14.69 7.97,-18.75 4.27,-4.07 9.9,-6.1 16.93,-6.1 8.86,0 16.36,4.06 22.56,12.19 6.25,8.12 10.21,25.01 11.93,50.69 -10.78,-12.56 -24.27,-18.81 -40.43,-18.81 -17.6,0 -32.81,6.83 -45.58,20.37 -12.76,13.6 -19.17,31.26 -19.17,53.04 0,22.71 6.77,40.99 20.26,54.9 13.45,13.86 30.64,20.84 51.48,20.84 22.71,0 41.31,-8.8 55.89,-26.36 14.54,-17.55 21.83,-46.42 21.83,-86.58 0,-40.95 -7.61,-70.43 -22.77,-88.56 -15.16,-18.08 -34.9,-27.14 -59.23,-27.14 -17.5,0 -31.62,4.63 -42.4,13.96 -10.78,9.32 -17.71,23.23 -20.79,41.73 z m 97.1,93.71 c 0,13.86 -3.17,24.59 -9.53,32.2 -6.35,7.66 -13.75,11.46 -22.08,11.46 -7.92,0 -14.54,-3.13 -19.75,-9.38 -5.26,-6.25 -7.86,-16.51 -7.86,-30.78 0,-14.44 2.86,-25.06 8.54,-31.78 5.68,-6.78 12.81,-10.16 21.36,-10.16 8.23,0 15.21,3.23 20.83,9.74 5.69,6.51 8.49,16.1 8.49,28.7 z m 93.85,-87.88 42.72,4.38 c 1.2,-9.64 4.84,-17.3 10.84,-22.92 5.99,-5.68 12.91,-8.5 20.73,-8.5 8.96,0 16.57,3.65 22.76,10.89 6.2,7.29 9.33,18.29 9.33,32.93 0,13.7 -3.07,24.01 -9.27,30.89 -6.15,6.87 -14.17,10.31 -24.02,10.31 -12.29,0 -23.34,-5.47 -33.13,-16.36 l -34.81,5.06 21.99,116.43 h 113.41 v -40.11 h -80.9 l -6.72,-38.03 c 9.58,4.79 19.33,7.19 29.33,7.19 19.02,0 35.16,-6.93 48.34,-20.74 13.23,-13.85 19.85,-31.83 19.85,-53.92 0,-18.39 -5.31,-34.85 -15.99,-49.28 -14.59,-19.74 -34.75,-29.59 -60.59,-29.59 -20.68,0 -37.5,5.52 -50.53,16.62 -13.03,11.1 -20.84,26 -23.34,44.75 z m 227.37,63.14 c -11.1,4.69 -19.17,11.15 -24.18,19.33 -5.05,8.17 -7.55,17.19 -7.55,26.93 0,16.67 5.78,30.47 17.45,41.37 11.67,10.88 28.24,16.35 49.7,16.35 21.25,0 37.77,-5.47 49.49,-16.35 11.77,-10.9 17.66,-24.7 17.66,-41.37 0,-10.37 -2.71,-19.59 -8.13,-27.71 -5.36,-8.08 -12.97,-14.28 -22.71,-18.55 12.4,-4.95 21.83,-12.24 28.29,-21.83 6.46,-9.53 9.69,-20.58 9.69,-33.08 0,-20.68 -6.57,-37.45 -19.75,-50.38 -13.18,-12.91 -30.68,-19.37 -52.56,-19.37 -20.37,0 -37.3,5.31 -50.85,15.99 -15.99,12.66 -23.96,29.95 -23.96,51.94 0,12.09 3.02,23.18 9.01,33.34 5.99,10.11 15.48,17.92 28.4,23.39 z m 8.85,43.19 c 0,-8.55 2.4,-15.22 7.24,-19.96 4.85,-4.79 11.26,-7.19 19.33,-7.19 8.13,0 14.64,2.4 19.54,7.25 4.84,4.84 7.29,11.51 7.29,20.05 0,8.08 -2.4,14.48 -7.24,19.33 -4.85,4.85 -11.2,7.24 -19.18,7.24 -8.23,0 -14.79,-2.45 -19.69,-7.29 -4.84,-4.9 -7.29,-11.36 -7.29,-19.43 z m -3.96,-95.81 c 0,-11.82 3.02,-21.04 9.07,-27.66 6.04,-6.61 13.59,-9.9 22.66,-9.9 8.85,0 16.2,3.18 21.98,9.54 5.78,6.35 8.7,15.52 8.7,27.56 0,10.46 -2.97,18.9 -8.86,25.26 -5.88,6.36 -13.38,9.53 -22.44,9.53 -10.48,0 -18.29,-3.64 -23.4,-10.83 -5.16,-7.24 -7.71,-15.06 -7.71,-23.5"
       style="fill:#254aa5;fill-opacity:1;fill-rule:nonzero;stroke:none"
       transform="matrix(0.13333333,0,0,-0.13333333,0,604.72)" />
    <path
       id="path3"
       d="m 2267.95,4251.97 c 1095.69,0 1984.24,-888.57 1984.24,-1984.26 0,-1095.68 -888.55,-1984.241 -1984.24,-1984.241 -1095.7,0 -1984.262,888.561 -1984.262,1984.241 0,1095.69 888.562,1984.26 1984.262,1984.26 z m 0,-70.87 c 1056.55,0 1913.38,-856.83 1913.38,-1913.39 0,-1056.54 -856.83,-1913.366 -1913.38,-1913.366 -1056.55,0 -1913.391,856.826 -1913.391,1913.366 0,1056.56 856.841,1913.39 1913.391,1913.39"
       style="fill:#254aa5;fill-opacity:1;fill-rule:evenodd;stroke:none"
       transform="matrix(0.13333333,0,0,-0.13333333,0,604.72)" />
    <path
       id="path4"
       d="m 3682.01,1632.8 c 2.29,-1.15 4.03,-3.14 5.18,-5.95 1.17,-2.8 1.17,-5.36 0,-7.65 -2.25,-4.44 -5.47,-6.78 -9.64,-7.07 -4.19,-0.27 -8.28,-0.55 -12.26,-0.81 -2.93,-0.83 -5.22,-2.85 -6.85,-6.06 -4.43,-8.71 -0.61,-16.14 11.45,-22.29 l 29.12,-14.83 14.12,27.74 7.34,-3.74 -14.13,-27.75 77.47,-39.47 c 9.77,-4.97 18.33,-0.28 25.65,14.08 l 3.2,-1.63 -30.48,-59.82 -3.2,1.64 c 6.38,12.51 4.69,21.28 -5.1,26.26 l -77.46,39.46 -9.58,-18.78 -7.34,3.74 9.58,18.8 -7.1,3.62 c -14.67,7.46 -24.27,17.16 -28.78,29.08 -4.21,11.39 -3.27,23.04 2.8,34.96 3.59,7.02 8.18,12.09 13.81,15.2 4.92,2.48 8.99,2.91 12.2,1.27 z M 735.234,2085.32 c -1.121,16.07 -7.078,23.74 -17.855,22.99 l -91.859,-6.43 c -21.899,-1.53 -38.582,4.79 -50.067,18.94 -8.851,11.07 -13.902,25.5 -15.14,43.3 -1.313,18.64 2.019,33.66 9.992,45.06 9.711,13.72 25.843,21.38 48.425,22.97 l 89.559,6.26 c 10.774,0.75 15.633,8.65 14.582,23.71 l 4.871,0.34 4.996,-71.36 -4.867,-0.32 c -1.055,15.06 -6.73,22.22 -16.984,21.5 l -92.899,-6.49 c -15.215,-1.06 -26.472,-4.79 -33.769,-11.12 -9.094,-7.7 -13.051,-19.92 -11.887,-36.67 2.262,-32.18 19.895,-47.1 52.91,-44.79 l 90.582,6.33 c 11.289,0.78 16.367,9.23 15.25,25.31 l 4.864,0.34 4.164,-59.54 z m -142.379,-152.82 -9.421,53.43 3.55,0.63 c 1.879,-10.64 8.219,-15.01 19.016,-13.1 l 63.844,11.27 c 6.254,1.11 10.652,3.74 13.23,7.94 2.571,4.2 3.371,8.98 2.41,14.4 -1.629,9.28 -8.164,17.72 -19.609,25.28 l -68.141,-12.02 c -10.796,-1.92 -15.269,-8.19 -13.398,-18.81 l -3.535,-0.63 -9.438,53.45 3.551,0.63 c 1.879,-10.64 8.227,-15.02 19.035,-13.1 l 68.645,12.09 c 5.414,0.95 8.664,2.67 9.808,5.13 1.137,2.46 0.977,6.79 -0.461,12.99 l 3.551,0.62 18.516,-35.4 -20.774,-3.66 c 15.899,-9.22 25.133,-21.08 27.692,-35.6 3.429,-19.43 -7.696,-31.4 -33.363,-35.93 l -57.766,-10.19 c -10.813,-1.9 -15.262,-8.17 -13.395,-18.81 z m 174.704,-27.09 c -3.68,-0.8 -6.977,-0.18 -9.852,1.83 -2.891,2.03 -4.73,4.87 -5.5,8.59 -0.801,3.67 -0.258,6.94 1.59,9.79 1.848,2.84 4.625,4.66 8.308,5.44 3.696,0.8 7.043,0.28 10.051,-1.55 3.028,-1.8 4.93,-4.56 5.711,-8.24 0.781,-3.68 0.188,-7.07 -1.797,-10.11 -1.984,-3.06 -4.82,-4.98 -8.511,-5.75 z m -154.457,-52.82 -12.664,59.63 3.515,0.74 c 2.727,-12.75 9.438,-17.98 20.176,-15.7 l 67.43,14.34 c 8.718,1.86 12.398,5.97 11.05,12.34 -0.531,2.52 -1.875,5.56 -4.043,9.14 l 3.77,0.8 22.191,-37.63 -95.855,-20.37 c -10.746,-2.28 -14.75,-9.81 -12.039,-22.54 z m 145.23,-104.58 c -1.426,5.3 -7.926,8.69 -19.512,10.22 l -99.175,12.3 c -3.672,0.43 -5.743,1.21 -6.215,2.33 -0.485,1.12 0.89,2.98 4.086,5.62 l 79.379,62.54 c 9.074,7.24 12.722,14.16 10.937,20.78 l 3.477,0.94 13.054,-48.7 -3.48,-0.93 c -1.996,7.45 -5.309,10.55 -9.988,9.31 -2.04,-0.37 -4.77,-1.76 -8.254,-4.17 l -55.692,-42.27 64.567,-6.4 c 5.457,-0.49 9.769,-0.4 12.961,0.28 5.015,1.18 6.546,5.38 4.593,12.68 l 3.485,0.94 9.246,-34.54 z M 737.16,1612.77 c -12.219,-1.2 -24.117,1.45 -35.691,7.92 -11.586,6.49 -19.426,15.09 -23.551,25.81 -4.859,12.64 -4.223,25.12 1.91,37.39 6.555,13.54 18.563,23.66 36.008,30.36 16.332,6.26 31.613,6.89 45.836,1.89 14.234,-5.01 24.078,-14.65 29.555,-28.89 4.984,-12.96 4.734,-24.91 -0.711,-35.82 -5.469,-10.91 -14.356,-18.73 -26.668,-23.47 l -28.582,74.45 c -15.055,-5.78 -26.157,-14.31 -33.301,-25.59 -7.152,-11.3 -8.672,-22.29 -4.551,-33.03 2.957,-7.68 8.613,-14.04 16.977,-19.11 7.488,-4.65 15.14,-7.13 22.961,-7.43 z m 24.953,42.63 c 17.793,8.68 24.059,19.89 18.774,33.65 -5.949,15.51 -18.594,20.93 -37.946,16.31 z m 77.11,-107.88 c -7.528,-3.36 -12.684,-1.89 -15.473,4.37 -1.473,3.3 -1.41,6.89 0.137,10.77 1.547,3.89 1.875,6.84 0.968,8.89 -1.179,2.65 -4.734,4.82 -10.648,6.52 -5.945,1.66 -11.18,1.49 -15.723,-0.53 l -55.136,-24.56 c -10.078,-4.48 -12.43,-12.66 -7.137,-24.57 l -3.277,-1.46 -24.704,55.45 3.293,1.48 c 5.235,-11.76 12.864,-15.4 22.918,-10.92 l 60.313,26.86 c 9.137,4.06 12.629,9.29 10.543,15.66 -1.121,2.51 -3.012,5.05 -5.656,7.63 l 3.523,1.57 29.68,-31.85 -21.391,-9.53 c 18.438,-3.05 29.68,-9.11 33.731,-18.2 1.535,-3.44 1.742,-6.87 0.621,-10.28 -1.102,-3.39 -3.313,-5.84 -6.582,-7.3 z m -19.078,-117.53 c -9.301,-5.15 -18.563,-5.79 -27.786,-1.88 -8.289,3.64 -14.925,9.95 -19.929,18.96 -1.817,3.3 -3.418,8.14 -4.805,14.53 -1.391,6.39 -2.836,10.94 -4.328,13.63 -1.836,3.32 -3.797,4.38 -5.902,3.21 l -1.739,3.15 34.871,19.34 2.118,-3.83 c -18.665,-15.85 -23.93,-31.13 -15.786,-45.81 2.829,-5.1 6.477,-8.67 10.942,-10.7 5.09,-2.48 10.187,-2.3 15.301,0.54 7.179,3.96 10.925,13.51 11.168,28.54 l 0.425,20.54 c 0.387,16.28 6.059,27.46 17,33.53 7.196,3.99 15.137,4.72 23.805,2.16 8.668,-2.54 15.531,-8.39 20.609,-17.53 2.496,-4.51 4.114,-9.4 4.883,-14.66 0.766,-5.26 1.61,-8.72 2.516,-10.37 0.988,-1.8 2.629,-2.46 4.922,-1.97 l 1.613,-2.93 -30.59,-16.97 -2,3.61 c 15.789,14.65 20.375,27.96 13.727,39.96 -2.492,4.51 -6.047,7.73 -10.66,9.7 -4.606,1.95 -9.098,1.71 -13.43,-0.7 -6.457,-3.58 -9.942,-12.87 -10.469,-27.85 l -0.711,-20.99 c -0.617,-17.99 -5.867,-29.72 -15.765,-35.21 z m 148.32,11.53 c -3.195,-2 -6.504,-2.54 -9.895,-1.64 -3.406,0.91 -6.105,2.96 -8.101,6.16 -2,3.21 -2.61,6.46 -1.867,9.78 0.773,3.29 2.746,5.95 5.953,7.96 3.199,1.99 6.519,2.65 9.976,1.98 3.457,-0.68 6.176,-2.6 8.172,-5.81 2.004,-3.19 2.606,-6.56 1.789,-10.11 -0.824,-3.54 -2.828,-6.32 -6.027,-8.32 z m -127.086,-102.45 -32.305,51.69 3.059,1.91 c 6.91,-11.06 15.019,-13.67 24.316,-7.87 l 58.465,36.55 c 7.574,4.73 9.621,9.85 6.164,15.38 -1.363,2.17 -3.672,4.58 -6.922,7.19 l 3.266,2.06 33.738,-27.77 -83.117,-51.93 c -9.305,-5.83 -10.512,-14.26 -3.598,-25.32 z m 65.98,-64.28 c -8.972,0.84 -15.867,2.18 -20.707,4.01 -6.105,2.44 -11.113,6.45 -15.066,12.07 -7.563,10.82 -3.828,21.49 11.199,32.02 l 67.223,47.07 -7.817,11.16 c -0.402,0.56 -0.16,1.26 0.731,2.09 0.969,0.7 1.758,0.91 2.336,0.7 8.656,-4 24.172,-6.42 46.555,-7.28 l 5.496,-0.24 -28.028,-19.63 14.602,-20.85 -6.742,-4.73 -14.602,20.86 -61.312,-42.94 c -11.668,-8.15 -15.332,-15.33 -11.008,-21.49 2.859,-4.09 8.711,-6.9 17.539,-8.47 z m 156.251,-48.49 c -1.58,2.02 -4.89,2.91 -9.93,2.68 -4.04,-0.11 -7.84,-0.69 -11.39,-1.72 l -114.267,-35.08 c -27.035,-8.29 -45.527,-6.08 -55.445,6.62 -7.703,9.86 -7.305,18.13 1.223,24.77 2.426,1.91 5.332,2.23 8.715,0.95 2.797,-1.07 5.152,-2.83 7.054,-5.27 1.164,-1.48 2.563,-4.95 4.207,-10.4 0.778,-2.68 1.911,-4.95 3.387,-6.83 5.07,-6.48 20.258,-4.63 45.582,5.57 l 45.184,88.85 c 3.203,6.19 4.925,10.26 5.164,12.19 0.476,2.99 -0.36,6.69 -2.489,11.1 l 2.836,2.24 32.629,-41.77 -2.84,-2.22 c -6.23,7.98 -11.18,10.54 -14.82,7.69 -1.89,-1.48 -3.63,-3.71 -5.24,-6.65 l -34.072,-65.31 65.052,21.89 c 5.86,1.96 9.41,3.42 10.62,4.37 1.21,0.95 1.71,2.7 1.46,5.23 -0.24,2.53 -1.57,5.35 -4,8.47 l 2.85,2.2 21.38,-27.36 z m 84.69,-161.19 c -12.89,-12.11 -27.33,-18.42 -43.33,-18.94 -15.99,-0.54 -29.73,4.99 -41.22,16.55 -10.73,10.85 -15.83,24.04 -15.24,39.57 0.58,15.55 6.7,29.35 18.37,41.44 12.04,12.45 25.37,19.24 40.04,20.36 15.5,1.23 29.61,-4.28 42.31,-16.56 12.59,-12.15 18.79,-25.89 18.64,-41.23 -0.16,-15.35 -6.69,-29.08 -19.57,-41.19 z m -24.17,9.05 c 11.9,12.32 19.77,24.29 23.57,35.87 4.73,14.27 2.34,26 -7.16,35.17 -6.67,6.44 -14.65,8.41 -23.95,5.95 -8.57,-2.21 -17.07,-7.69 -25.53,-16.46 -11.43,-11.83 -19.23,-23.99 -23.38,-36.42 -4.85,-14.39 -3,-25.71 5.5,-33.93 7.53,-7.27 16.66,-9.17 27.39,-5.7 8.32,2.69 16.18,7.88 23.56,15.52 z m 178.84,-8.36 c -1.67,-1.93 -4.02,-3.14 -7.02,-3.59 -3.01,-0.45 -5.48,0.16 -7.43,1.84 -3.76,3.28 -5.26,6.98 -4.52,11.09 0.75,4.12 1.46,8.16 2.16,12.09 -0.07,3.04 -1.48,5.75 -4.21,8.11 -7.37,6.4 -15.51,4.49 -24.39,-5.72 l -21.43,-24.66 23.48,-20.42 -5.4,-6.22 -23.48,20.42 -57.05,-65.615 c -7.2,-8.281 -4.71,-17.707 7.45,-28.281 l -2.35,-2.727 -50.68,44.043 2.37,2.72 c 10.6,-9.212 19.51,-9.685 26.71,-1.41 l 57.04,65.63 -15.91,13.83 5.4,6.21 15.92,-13.85 5.23,6.03 c 10.79,12.43 22.53,19.38 35.18,20.88 12.07,1.32 23.15,-2.39 33.24,-11.17 5.97,-5.16 9.76,-10.87 11.4,-17.07 1.23,-5.39 0.66,-9.43 -1.71,-12.16 z m 67.01,-188.077 c -9.48,-13.035 -21.46,-19.899 -35.96,-20.598 -12.79,-0.687 -25.34,3.461 -37.7,12.434 -5.13,3.73 -10.41,9.308 -15.82,16.746 -5.41,7.429 -9.16,11.89 -11.23,13.402 -3.48,2.531 -7.22,1.746 -11.25,-2.328 l -4.57,3.324 26.27,49.281 4.58,-3.32 c -9.11,-30.902 -3.67,-53.625 16.32,-68.152 6.09,-4.422 12.93,-6.532 20.52,-6.301 8.67,0.269 15.62,3.996 20.87,11.219 8.47,11.64 8.58,26.836 0.33,45.535 l -11.51,26.176 c -9.59,21.793 -9.4,39.574 0.59,53.309 7.85,10.83 17.62,17.03 29.27,18.64 11.65,1.59 22.97,-1.59 33.94,-9.55 6.23,-4.53 11.43,-10.07 15.6,-16.59 4.16,-6.512 7.34,-10.583 9.57,-12.204 3.05,-2.215 6.94,-1.535 11.65,2.043 l 4.36,-3.191 -27.61,-47.649 -5.01,3.629 c 9.58,29.504 5.22,50.91 -13.1,64.212 -5.84,4.25 -12.05,6.05 -18.63,5.44 -6.6,-0.62 -12.16,-4.05 -16.7,-10.29 -3.94,-5.409 -5.17,-12.358 -3.7,-20.85 1.03,-4.996 3.78,-13.02 8.24,-24.106 l 11.11,-27.144 c 9.19,-22.367 9.06,-40.07 -0.43,-53.117 z M 1479,804.457 c -12.23,-7.793 -22.47,-12.668 -30.73,-14.637 -11.63,-3 -22.64,-1.484 -33.04,4.532 -11.73,6.757 -19.03,16.925 -21.91,30.468 -3.13,14.473 -0.23,29.442 8.69,44.871 8.91,15.465 20.83,25.606 35.71,30.485 14.89,4.867 29.98,2.879 45.28,-5.953 8.91,-5.149 15.32,-11.801 19.19,-19.989 3.89,-8.187 4.21,-15.093 0.95,-20.742 -1.53,-2.676 -3.84,-4.429 -6.87,-5.23 -3.05,-0.828 -6,-0.426 -8.82,1.207 -2.96,1.715 -4.77,4.16 -5.44,7.297 -0.65,3.164 -0.29,5.91 1.08,8.3 2.57,4.454 3.21,8.985 1.91,13.594 -1.29,4.613 -4.24,8.254 -8.85,10.903 -10.84,6.257 -21.73,6.117 -32.65,-0.461 -7.97,-4.887 -14.57,-11.875 -19.82,-20.942 -6.76,-11.722 -9.37,-23.781 -7.8,-36.176 1.56,-12.379 7.1,-21.316 16.6,-26.808 12.18,-7.031 26.99,-6.082 44.43,2.867 z m 118.42,79.297 c -1.77,-3.328 -4.34,-5.461 -7.75,-6.363 -3.39,-0.918 -6.76,-0.489 -10.09,1.289 -3.32,1.773 -5.5,4.277 -6.48,7.531 -1.01,3.246 -0.6,6.539 1.17,9.863 1.76,3.332 4.31,5.571 7.63,6.707 3.35,1.145 6.66,0.832 9.99,-0.937 3.34,-1.778 5.53,-4.399 6.6,-7.875 1.07,-3.485 0.71,-6.887 -1.07,-10.215 z m -58.8,-152.27 -53.84,28.625 1.68,3.184 c 11.52,-6.129 19.84,-4.336 25,5.355 l 32.36,60.864 c 4.19,7.879 3.4,13.355 -2.35,16.406 -2.26,1.207 -5.47,2.141 -9.59,2.777 l 1.82,3.407 43.08,-7.188 -46.01,-86.539 c -5.15,-9.687 -1.97,-17.586 9.53,-23.703 z m 130.68,-10.093 c -7.45,-9.758 -17.5,-16.668 -30.14,-20.707 -12.64,-4.043 -24.29,-3.93 -34.94,0.382 -12.55,5.063 -21.24,14.043 -26.03,26.887 -5.43,14.012 -4.65,29.707 2.36,47.043 6.55,16.219 16.51,27.817 29.88,34.813 13.37,6.988 27.13,7.632 41.28,1.91 12.88,-5.203 21.44,-13.528 25.71,-24.946 4.25,-11.437 3.91,-23.265 -1.04,-35.511 l -73.94,29.863 c -6.03,-14.945 -7.37,-28.871 -3.99,-41.812 3.39,-12.926 10.4,-21.54 21.05,-25.829 7.63,-3.089 16.16,-3.296 25.56,-0.625 8.51,2.301 15.53,6.215 21.11,11.735 z m -14.16,47.324 c 5.8,18.933 1.85,31.152 -11.82,36.672 -15.38,6.226 -27.98,0.683 -37.78,-16.621 z m 137.3,-134.453 -51.31,17.664 1.16,3.402 c 10.23,-3.519 17.11,-0.078 20.67,10.297 l 21.13,61.293 c 2.06,5.992 1.88,11.129 -0.55,15.418 -2.42,4.285 -6.23,7.332 -11.42,9.102 -8.92,3.066 -19.46,1.437 -31.6,-4.903 l -22.54,-65.426 c -3.57,-10.375 -0.25,-17.32 9.96,-20.832 l -1.16,-3.406 -51.32,17.68 1.16,3.402 c 10.23,-3.531 17.11,-0.098 20.69,10.289 l 22.69,65.903 c 1.79,5.187 1.88,8.875 0.28,11.066 -1.6,2.184 -5.47,4.152 -11.58,5.883 l 1.18,3.406 39.93,-0.957 -6.86,-19.941 c 15.76,9.437 30.61,11.757 44.55,6.957 18.66,-6.414 23.73,-21.965 15.24,-46.598 l -19.09,-55.445 c -3.57,-10.387 -0.24,-17.34 9.96,-20.864 z m 126.42,10.562 c -9.41,-11.027 -17.78,-18.687 -25.11,-22.972 -10.23,-6.262 -21.21,-8.047 -32.91,-5.352 -13.2,3.055 -23.16,10.625 -29.86,22.742 -7.24,12.938 -8.83,28.078 -4.82,45.446 4.01,17.398 12.43,30.597 25.24,39.593 12.81,9.024 27.83,11.528 45.04,7.555 10.02,-2.313 18.1,-6.82 24.2,-13.52 6.13,-6.683 8.44,-13.199 6.98,-19.546 -0.7,-3.004 -2.38,-5.36 -5.05,-7.02 -2.68,-1.676 -5.61,-2.125 -8.78,-1.414 -3.34,0.785 -5.79,2.566 -7.34,5.391 -1.54,2.828 -2.01,5.574 -1.39,8.242 1.15,5.011 0.44,9.531 -2.15,13.566 -2.59,4.039 -6.48,6.653 -11.65,7.836 -12.19,2.817 -22.56,-0.504 -31.08,-9.976 -6.21,-7.008 -10.48,-15.625 -12.83,-25.809 -3.06,-13.211 -2,-25.5 3.1,-36.887 5.12,-11.398 13.02,-18.324 23.71,-20.793 13.71,-3.16 27.6,2.086 41.65,15.735 z m 126.49,-22.273 c -5.47,-10.988 -14.01,-19.68 -25.65,-26.067 -11.63,-6.39 -23.09,-8.476 -34.38,-6.3 -13.28,2.593 -23.52,9.742 -30.68,21.441 -8.01,12.73 -10.23,28.27 -6.66,46.621 3.34,17.172 10.91,30.461 22.69,39.883 11.79,9.406 25.17,12.656 40.16,9.75 13.62,-2.66 23.63,-9.184 29.99,-19.59 6.37,-10.41 8.29,-22.098 5.76,-35.062 l -78.27,15.226 c -3.07,-15.828 -1.72,-29.758 4.06,-41.808 5.79,-12.028 14.31,-19.153 25.59,-21.352 8.09,-1.574 16.49,-0.141 25.21,4.277 7.91,3.883 14.06,9.055 18.47,15.532 z m -22.94,43.773 c 2.06,19.68 -4.13,30.918 -18.6,33.75 -16.29,3.16 -27.6,-4.683 -33.92,-23.539 z m 199.75,-87.953 c -3.68,-2.613 -7.34,-5.219 -11.02,-7.82 -4.36,-2.719 -8.51,-3.895 -12.44,-3.567 -10.43,0.926 -15.83,7.938 -16.24,21.047 -6.09,-4.621 -12.89,-8.597 -20.4,-11.894 -7.52,-3.313 -13.41,-4.762 -17.69,-4.395 -7.52,0.664 -13.79,3.746 -18.81,9.266 -5.02,5.508 -7.24,11.769 -6.63,18.785 1.32,15.039 10.8,26.074 28.46,33.137 11.97,4.816 24.98,8.925 39.06,12.34 l 0.81,9.484 c 1.63,18.617 -3.19,28.43 -14.46,29.406 -12.82,1.129 -19.54,-1.894 -20.17,-9.074 -0.12,-1.539 -0.12,-3.094 -0.02,-4.645 0.13,-1.566 0.09,-3.461 -0.1,-5.683 -0.29,-3.246 -1.65,-6.008 -4.09,-8.297 -2.44,-2.273 -5.28,-3.277 -8.53,-2.984 -3.42,0.293 -6.07,1.461 -7.95,3.527 -1.87,2.055 -2.7,4.465 -2.47,7.195 0.81,9.219 6.16,16.246 16.05,21.059 8.46,4.09 17.7,5.672 27.78,4.801 13.68,-1.188 23.18,-4.782 28.5,-10.75 5.81,-6.539 8.06,-17.164 6.79,-31.848 l -4.95,-56.375 c -0.57,-6.66 1.18,-10.168 5.27,-10.539 3.09,-0.266 7.34,1.168 12.77,4.305 z m -40.21,15.652 3.92,44.836 c -13.73,-3.449 -23.21,-6.574 -28.45,-9.386 -9.21,-5.039 -14.22,-12.012 -14.99,-20.887 -1.25,-14.188 4.37,-21.813 16.84,-22.91 6.49,-0.559 14.05,2.207 22.68,8.347 z m 178.58,-22.355 -54.26,-1.895 -0.12,3.594 c 10.81,0.383 16.01,6.055 15.64,17.024 l -2.27,64.785 c -0.23,6.336 -2.24,11.07 -6.04,14.207 -3.8,3.133 -8.44,4.59 -13.92,4.383 -9.43,-0.309 -18.68,-5.61 -27.76,-15.883 l 2.41,-69.156 c 0.38,-10.965 5.98,-16.262 16.78,-15.879 l 0.12,-3.602 -54.24,-1.894 -0.14,3.589 c 10.81,0.387 16.03,6.067 15.64,17.032 l -2.44,69.664 c -0.19,5.476 -1.42,8.949 -3.71,10.426 -2.27,1.464 -6.58,1.906 -12.91,1.343 l -0.13,3.606 37.62,13.402 0.74,-21.07 c 11.33,14.472 24.37,21.941 39.11,22.461 19.71,0.699 30.03,-11.992 30.93,-38.039 l 2.04,-58.621 c 0.38,-10.969 5.99,-16.247 16.78,-15.887 z m 140.28,20.715 c -12.33,-4.699 -24.88,-10.715 -37.68,-18.004 l -1.61,18.441 c -7.64,-13.066 -19.07,-20.265 -34.27,-21.597 -10.42,-0.91 -20.26,2.445 -29.54,10.113 -11.51,9.711 -18.13,24.199 -19.8,43.41 -1.48,16.957 2.51,32.199 12,45.637 9.5,13.445 21.85,20.859 37.05,22.18 11.45,1 20.31,-1.833 26.58,-8.512 l -3.61,41.246 c -0.5,5.812 -2.09,9.113 -4.75,9.918 -0.87,0.265 -5.16,0.062 -12.86,-0.61 l -0.45,5.122 c 7.72,2.394 20.19,7.281 37.47,14.644 l 13,-148.637 c 0.46,-5.285 2.02,-8.421 4.68,-9.386 1.62,-0.731 6.11,-0.77 13.44,-0.121 z m -40.24,11.273 -4.81,54.883 c -0.76,8.758 -3.81,15.469 -9.13,20.207 -5.31,4.742 -11.56,6.774 -18.73,6.156 -10.76,-0.937 -18.7,-6.754 -23.78,-17.41 -4.38,-9.039 -6.01,-19.972 -4.89,-32.871 1.33,-15.066 5.33,-27.297 11.99,-36.558 6.89,-9.95 15.38,-14.497 25.46,-13.622 6.68,0.59 11.74,2.227 15.18,4.95 3.47,2.754 6.37,7.476 8.71,14.265 z m 226.19,147.028 -6.01,-1.395 c -6.08,11.789 -10.13,18.703 -12.18,20.691 -5.84,5.512 -14.44,6.958 -25.81,4.34 l -23.07,-5.336 30.9,-133.832 c 2.59,-11.203 12.07,-14.902 28.46,-11.129 l 1.09,-4.765 -74.7,-17.238 -1.09,4.765 c 16.36,3.774 23.26,11.27 20.67,22.453 l -30.89,133.856 -20.07,-4.637 c -13.01,-3.004 -21.06,-8.211 -24.11,-15.602 -1.34,-3.304 -1.94,-11.359 -1.81,-24.171 l -6,-1.403 -8.35,42.965 141.62,32.695 z m 136,-48.071 c 0.78,-12.242 -2.28,-24.039 -9.16,-35.379 -6.89,-11.367 -15.76,-18.906 -26.63,-22.64 -12.8,-4.41 -25.24,-3.336 -37.28,3.211 -13.3,7.031 -22.99,19.386 -29.09,37.047 -5.69,16.543 -5.78,31.843 -0.29,45.882 5.51,14.036 15.48,23.555 29.9,28.52 13.14,4.523 25.06,3.875 35.77,-1.965 10.71,-5.836 18.23,-14.992 22.53,-27.476 l -75.4,-25.958 c 5.25,-15.246 13.38,-26.628 24.42,-34.167 11.03,-7.543 21.97,-9.434 32.84,-5.7 7.78,2.684 14.33,8.117 19.69,16.293 4.91,7.321 7.66,14.895 8.23,22.699 z m -41.75,26.446 c -8.03,18.086 -19.02,24.726 -32.97,19.921 -15.68,-5.394 -21.55,-17.851 -17.61,-37.347 z m 156.2,16.125 c -1.39,-14.434 -3.84,-25.524 -7.39,-33.239 -4.8,-11 -12.77,-18.742 -23.9,-23.246 -12.55,-5.078 -25.05,-4.57 -37.5,1.5 -13.34,6.453 -23.34,17.946 -30.01,34.481 -6.69,16.539 -7.37,32.172 -2.03,46.902 5.33,14.731 16.18,25.398 32.56,32.016 9.53,3.847 18.72,4.789 27.56,2.828 8.86,-1.981 14.49,-5.996 16.94,-12.035 1.15,-2.86 1.11,-5.743 -0.11,-8.645 -1.23,-2.906 -3.35,-4.969 -6.38,-6.176 -3.18,-1.308 -6.22,-1.23 -9.1,0.203 -2.89,1.422 -4.85,3.407 -5.88,5.95 -1.92,4.765 -5.09,8.058 -9.54,9.871 -4.44,1.82 -9.11,1.734 -14.04,-0.258 -11.6,-4.695 -18.19,-13.363 -19.74,-26 -1.03,-9.305 0.39,-18.82 4.3,-28.504 5.09,-12.57 12.98,-22.047 23.71,-28.434 10.73,-6.398 21.16,-7.55 31.34,-3.421 13.04,5.253 21.41,17.519 25.11,36.769 z m 146.65,27.91 -47.94,-25.485 -1.68,3.18 c 9.53,5.078 11.73,12.449 6.57,22.125 l -28.24,53.168 c -7.51,14.078 -16.92,18.094 -28.28,12.055 -8.93,-4.739 -14.88,-13.641 -17.86,-26.684 l 32.37,-60.867 c 5.16,-9.695 12.5,-12.004 22.03,-6.93 l 1.71,-3.179 -47.93,-25.485 -1.7,3.188 c 9.54,5.058 11.73,12.457 6.58,22.144 l -59.65,112.203 c -2.82,5.297 -5.5,7.946 -8.02,7.969 -1.63,0.109 -5.61,-1.523 -11.96,-4.91 l -2.19,4.09 c 5.49,5.058 14.92,14.332 28.31,27.867 l 36.71,-69.043 c 3.77,17.73 11.49,29.707 23.15,35.906 18.93,10.055 34.5,3.586 46.75,-19.422 l 27.54,-51.785 c 5.15,-9.699 12.5,-12.011 22.03,-6.922 z m 123.9,70.722 -47,-27.14 -1.81,3.117 c 9.37,5.402 11.3,12.852 5.8,22.371 l -32.4,56.125 c -3.18,5.496 -7.16,8.738 -11.99,9.719 -4.82,0.972 -9.62,0.09 -14.36,-2.649 -8.16,-4.722 -13.86,-13.75 -17.05,-27.07 l 34.6,-59.922 c 5.48,-9.515 12.91,-11.566 22.26,-6.164 l 1.82,-3.125 -47.02,-27.137 -1.79,3.129 c 9.35,5.399 11.29,12.856 5.79,22.371 l -34.85,60.356 c -2.74,4.754 -5.47,7.238 -8.17,7.473 -2.7,0.222 -6.72,-1.407 -12.05,-4.891 l -1.8,3.133 26.93,29.496 10.54,-18.262 c 3.22,18.09 11.22,30.836 23.99,38.199 17.09,9.871 32.14,3.504 45.17,-19.074 l 29.33,-50.785 c 5.49,-9.508 12.91,-11.563 22.26,-6.152 z m 75.51,126.872 c 9.68,-14.79 13.38,-30.122 11.12,-45.965 -2.25,-15.84 -10.07,-28.414 -23.46,-37.715 -12.55,-8.699 -26.42,-11.403 -41.63,-8.141 -15.2,3.262 -27.74,11.696 -37.61,25.293 -10.17,14.008 -14.54,28.336 -13.08,42.961 1.48,15.481 9.35,28.414 23.64,38.793 14.14,10.277 28.78,14.02 43.85,11.18 15.09,-2.801 27.47,-11.617 37.17,-26.406 z m -13.11,-22.239 c -10.09,13.875 -20.49,23.699 -31.24,29.446 -13.23,7.132 -25.19,6.824 -35.88,-0.95 -7.49,-5.445 -10.83,-12.945 -10.01,-22.543 0.68,-8.828 4.6,-18.16 11.77,-28.007 9.67,-13.325 20.27,-23.094 31.81,-29.356 13.32,-7.262 24.79,-7.414 34.35,-0.465 8.48,6.16 11.92,14.809 10.4,25.977 -1.21,8.656 -4.95,17.297 -11.2,25.898 z m 112.58,32.774 -46.2,-40.168 -2.36,2.715 c 9.97,8.679 11.35,17.144 4.15,25.429 l -84.21,96.881 c -3.03,3.49 -5.7,5.37 -8,5.65 -2.29,0.3 -5.05,-0.98 -8.29,-3.79 -1.69,-1.46 -3.77,-3.51 -6.26,-6.12 l -2.54,2.9 c 5.01,7.07 12.89,19.17 23.7,36.28 l 102.09,-117.453 c 7.2,-8.297 15.73,-8.152 25.56,0.402 z m 63.06,133.527 c 11.64,-13.3 17.45,-27.96 17.41,-43.97 -0.03,-16.01 -6.04,-29.54 -17.99,-40.61 -11.22,-10.36 -24.59,-14.98 -40.09,-13.86 -15.49,1.12 -29.09,7.74 -40.76,19.82 -12.03,12.46 -18.34,26.03 -18.94,40.71 -0.7,15.52 5.32,29.44 18,41.71 12.6,12.15 26.55,17.88 41.89,17.19 15.31,-0.69 28.81,-7.7 40.48,-20.99 z m -9.89,-23.84 c -11.91,12.34 -23.59,20.59 -35.04,24.8 -14.1,5.22 -25.91,3.25 -35.39,-5.92 -6.66,-6.44 -8.93,-14.34 -6.79,-23.72 1.92,-8.65 7.1,-17.34 15.56,-26.1 11.44,-11.85 23.29,-20.06 35.58,-24.64 14.23,-5.35 25.58,-3.9 34.09,4.32 7.53,7.26 9.76,16.32 6.67,27.17 -2.39,8.41 -7.29,16.45 -14.68,24.09 z m 67.69,152.44 -13.72,-16.35 c 6.42,-1.14 12.86,-4.41 19.3,-9.83 9.19,-7.71 14.11,-16.91 14.73,-27.64 0.63,-10.71 -3.07,-20.86 -11.11,-30.46 -3.09,-3.68 -6.46,-6.89 -10.11,-9.64 -1.62,-10.72 -0.53,-17.7 3.28,-20.9 4.07,-3.42 12.94,3.02 26.61,19.3 13.24,15.78 23.85,25.1 31.88,27.99 7.56,2.62 15.62,0.33 24.15,-6.83 8.82,-7.38 11.82,-19.42 9.01,-36.09 -2.75,-15.82 -9.48,-30.1 -20.18,-42.85 -8.81,-10.51 -18.6,-16.84 -29.37,-19 -8.72,-1.86 -15.24,-0.98 -19.59,2.66 -3.68,3.09 -5.56,8.59 -5.64,16.49 -0.29,7.39 -0.5,14.75 -0.65,22.03 -3.1,-2.09 -6.49,-3.39 -10.17,-3.89 -3.66,-0.5 -6.41,0.02 -8.25,1.55 -4.07,3.44 -6.49,8.93 -7.28,16.54 -0.35,3.86 -0.19,10.32 0.49,19.39 -15.62,-7.94 -29.73,-6.62 -42.35,3.96 -8.79,7.39 -13.56,16.86 -14.26,28.43 -0.7,11.56 3.45,22.73 12.5,33.5 3.85,4.6 9.81,9.17 17.88,13.71 8.06,4.54 13.25,8.31 15.53,11.29 l 9.63,13.09 z m -0.46,-46.96 c -7.88,6.62 -16.28,10.86 -25.22,12.78 -10.17,2.03 -17.82,-0.06 -23,-6.22 -4.31,-5.13 -5.69,-10.52 -4.17,-16.16 1.54,-5.65 5.31,-10.77 11.3,-15.36 8.5,-6.68 16.83,-10.88 25.02,-12.6 9.79,-1.94 17.39,0.31 22.79,6.74 8.26,9.86 6.03,20.12 -6.72,30.82 z m 84.16,-35.36 c -5.12,4.3 -11.66,3.18 -19.6,-3.36 -3.99,-3.15 -10.62,-10.24 -19.87,-21.27 -7.18,-8.55 -14.16,-15.56 -20.99,-21.01 1.31,-12.07 4.25,-20.02 8.85,-23.88 9.45,-7.94 22.3,-2.25 38.49,17.07 9.93,11.81 15.82,22.87 17.74,33.13 1.66,8.91 0.12,15.35 -4.62,19.32 z m -5.33,199.14 c -1.59,-2.03 -1.66,-5.44 -0.21,-10.29 1.08,-3.9 2.57,-7.43 4.42,-10.63 l 61.7,-102.39 c 14.57,-24.23 16.89,-42.69 6.97,-55.39 -7.71,-9.87 -15.81,-11.47 -24.34,-4.82 -2.42,1.89 -3.43,4.65 -3.02,8.24 0.37,2.98 1.5,5.69 3.41,8.12 1.16,1.47 4.19,3.69 9.08,6.61 2.4,1.4 4.33,3.03 5.8,4.93 5.07,6.48 -0.4,20.77 -16.44,42.87 l -97.13,22.35 c -6.78,1.6 -11.15,2.29 -13.07,2.06 -3.03,-0.25 -6.42,-1.95 -10.18,-5.1 l -2.85,2.22 32.63,41.75 2.84,-2.21 c -6.24,-7.98 -7.52,-13.39 -3.88,-16.24 1.89,-1.48 4.48,-2.63 7.74,-3.48 l 71.6,-17.25 -36.98,57.81 c -3.32,5.22 -5.6,8.31 -6.81,9.25 -1.23,0.95 -3.02,1 -5.43,0.16 -2.39,-0.84 -4.82,-2.82 -7.25,-5.92 l -2.81,2.21 21.37,27.35 z m 136.3,122.89 c 15.02,-9.31 24.87,-21.63 29.52,-36.95 4.65,-15.31 2.87,-30.02 -5.33,-44.1 -7.7,-13.19 -19.12,-21.51 -34.28,-24.95 -15.16,-3.49 -30.09,-1.13 -44.78,7.01 -15.16,8.4 -25.15,19.54 -30.01,33.4 -5.22,14.65 -3.53,29.72 5.02,45.15 8.48,15.3 20.15,24.86 35.02,28.68 14.86,3.83 29.82,1.07 44.84,-8.24 z m -2.47,-25.69 c -15.01,8.33 -28.59,12.8 -40.77,13.47 -15,0.88 -25.72,-4.46 -32.11,-16.01 -4.49,-8.1 -4.34,-16.31 0.45,-24.65 4.35,-7.71 11.84,-14.53 22.51,-20.42 14.39,-7.98 28.14,-12.37 41.23,-13.15 15.16,-0.96 25.6,3.74 31.34,14.09 5.08,9.14 4.55,18.47 -1.56,27.93 -4.76,7.35 -11.79,13.6 -21.09,18.74 z m 163.99,312.48 c 13.02,-25.4 14.66,-50.82 4.88,-76.28 -9.46,-24.65 -25.14,-41.32 -47.03,-50 -20.94,-8.13 -43.17,-7.67 -66.71,1.36 -23.04,8.85 -39.71,23.97 -49.96,45.34 -10.24,21.4 -10.94,43.62 -2.1,66.67 3.63,9.45 8.81,18.53 15.56,27.25 6.73,8.7 10.32,13.61 10.76,14.73 1.82,4.27 0.01,8.43 -5.39,12.54 l 2.02,5.28 55.12,-18.67 -2.31,-6 c -14.56,2.27 -27.7,0.24 -39.39,-6.09 -11.71,-6.35 -20.15,-16.23 -25.32,-29.68 -6.89,-17.93 -5.22,-34.66 5.01,-50.15 9.71,-14.38 25.3,-25.7 46.76,-33.94 20.97,-8.05 40.15,-9.52 57.52,-4.44 17.39,5.09 29.4,16.27 36.04,33.56 5.61,14.56 7.29,28.8 5.09,42.68 -0.79,5.63 -3.2,13.45 -7.27,23.45 z m 61.19,130.79 -14.05,-52.43 -3.47,0.93 c 2.79,10.43 -1.1,17.08 -11.7,19.91 l -58.15,15.58 c -15.42,4.12 -24.77,0 -28.09,-12.43 -2.63,-9.79 -0.18,-20.21 7.31,-31.27 l 66.6,-17.86 c 10.61,-2.82 17.29,0.97 20.09,11.39 l 3.48,-0.91 -14.03,-52.43 -3.5,0.93 c 2.81,10.44 -1.09,17.08 -11.69,19.92 l -122.75,32.89 c -5.8,1.55 -9.56,1.39 -11.3,-0.43 -1.18,-1.11 -2.7,-5.14 -4.58,-12.1 l -4.47,1.21 c 0.05,7.44 -0.32,20.67 -1.07,39.7 l 75.53,-20.25 c -10.4,14.87 -13.89,28.67 -10.48,41.44 5.56,20.69 20.92,27.68 46.1,20.93 l 56.65,-15.18 c 10.6,-2.84 17.31,0.96 20.11,11.39 z m -148.04,91.61 c 3.72,-0.65 6.53,-2.46 8.46,-5.41 1.91,-2.95 2.55,-6.27 1.89,-10 -0.66,-3.7 -2.37,-6.55 -5.16,-8.49 -2.78,-1.95 -6.02,-2.59 -9.75,-1.94 -3.7,0.66 -6.62,2.39 -8.74,5.2 -2.12,2.82 -2.85,6.08 -2.19,9.79 0.66,3.72 2.47,6.6 5.45,8.71 2.99,2.07 6.32,2.79 10.04,2.14 z m 163,-8.89 -10.59,-60.04 -3.55,0.63 c 2.27,12.84 -2.01,20.21 -12.81,22.11 l -67.9,11.98 c -8.78,1.55 -13.74,-0.9 -14.87,-7.31 -0.44,-2.54 -0.34,-5.86 0.32,-9.99 l -3.79,0.67 -6.48,43.2 96.52,-17.02 c 10.8,-1.89 17.34,3.55 19.59,16.4 z m 21.28,141.86 -6.61,-53.87 -3.58,0.42 c 1.32,10.74 -3.47,16.77 -14.37,18.11 l -64.32,7.89 c -6.31,0.77 -11.3,-0.47 -14.98,-3.73 -3.68,-3.27 -5.86,-7.62 -6.53,-13.07 -1.15,-9.35 2.63,-19.33 11.35,-29.9 l 68.69,-8.43 c 10.9,-1.35 16.99,3.36 18.32,14.08 l 3.58,-0.44 -6.63,-53.88 -3.56,0.45 c 1.3,10.72 -3.49,16.74 -14.38,18.08 l -69.19,8.5 c -5.45,0.67 -9.08,-0.01 -10.88,-2.03 -1.8,-2.02 -2.91,-6.21 -3.34,-12.55 l -3.58,0.45 -7.36,39.26 20.94,-2.58 c -12.52,13.46 -17.88,27.51 -16.08,42.15 2.4,19.57 16.54,27.76 42.4,24.6 l 58.22,-7.15 c 10.9,-1.34 17,3.35 18.33,14.06 z m -6.16,128.14 c 2.84,-3.5 5.71,-6.97 8.56,-10.44 3.02,-4.17 4.49,-8.23 4.42,-12.17 -0.19,-10.46 -6.81,-16.35 -19.86,-17.66 5.05,-5.75 9.48,-12.27 13.3,-19.53 3.81,-7.28 5.68,-13.06 5.61,-17.33 -0.13,-7.55 -2.79,-14.02 -7.94,-19.42 -5.14,-5.4 -11.24,-8.04 -18.27,-7.93 -15.09,0.28 -26.77,8.97 -35.06,26.1 -5.61,11.59 -10.62,24.28 -15.02,38.07 l -9.51,0.18 c -18.69,0.31 -28.13,-5.17 -28.33,-16.5 -0.23,-12.85 3.26,-19.34 10.46,-19.46 1.54,-0.03 3.1,0.06 4.63,0.3 1.56,0.23 3.45,0.32 5.68,0.28 3.25,-0.05 6.11,-1.22 8.56,-3.49 2.45,-2.27 3.64,-5.04 3.59,-8.3 -0.07,-3.43 -1.06,-6.15 -2.99,-8.18 -1.91,-2.02 -4.26,-3.01 -7,-2.97 -9.25,0.18 -16.64,5.01 -22.12,14.54 -4.66,8.15 -6.9,17.29 -6.73,27.39 0.24,13.73 3.16,23.45 8.75,29.16 6.11,6.25 16.55,9.25 31.28,9 l 56.59,-1 c 6.68,-0.12 10.06,1.88 10.12,6.01 0.07,3.08 -1.67,7.22 -5.17,12.42 z m -12.81,-41.21 -45.01,0.8 c 4.39,-13.46 8.18,-22.71 11.35,-27.73 5.68,-8.84 12.97,-13.35 21.88,-13.51 14.23,-0.25 21.46,5.9 21.67,18.41 0.13,6.51 -3.17,13.86 -9.89,22.03"
       style="fill:#254aa5;fill-opacity:1;fill-rule:nonzero;stroke:none"
       transform="matrix(0.13333333,0,0,-0.13333333,0,604.72)" />
    <path
       id="path5"
       d="m 2914.41,1848.61 c 274.8,631.71 28.09,1030.41 -507.41,1241.92 320.96,-129.81 253.02,-527.46 125.11,-728.84 -127.9,-201.39 -345.73,-364.48 -689.35,-519.17 368.03,143.83 597.92,333.65 705.08,511.27 107.16,177.61 126.73,331.96 97.67,505.19 166.37,-355.11 26.07,-667.7 -300.37,-978.09 378.46,325.84 501.22,676.8 287.18,1039.95 318.28,-349.18 232.29,-722.73 12.98,-1055.55 269.85,373.86 316.44,769.38 -41.48,1109.23 430.34,-263.36 491.42,-623.37 310.59,-1125.91"
       style="fill:#254aa5;fill-opacity:1;fill-rule:evenodd;stroke:none"
       transform="matrix(0.13333333,0,0,-0.13333333,0,604.72)" />
    <path
       id="path6"
       d="m 2311.61,3058.15 c -76.31,78.98 -140.12,127.08 -239.1,177.28 140.99,-1.82 309.83,-35.31 418.91,-65.83 -114.26,13.22 -165.48,1.64 -191.08,-15.98 -25.59,-17.61 -16.06,-46.42 11.27,-95.47"
       style="fill:#254aa5;fill-opacity:1;fill-rule:evenodd;stroke:none"
       transform="matrix(0.13333333,0,0,-0.13333333,0,604.72)" />
    <path
       id="path7"
       d="m 2325.18,1629.9 c 2.21,52.21 7.37,86.66 81.91,104.55 74.54,17.89 156.63,15.68 293.64,-6.41 137,-22.1 246.89,-31.83 382.19,-18.99 -45.9,29.85 -59.77,44.13 -77.94,78.51 -118.3,-2.5 -196.67,5.75 -295.26,35.88 -98.59,30.13 -214.76,61.21 -290.32,53.28 -75.57,-7.93 -125.1,-49.99 -151.45,-142.25 -26.35,92.26 -75.88,134.32 -151.45,142.25 -75.56,7.93 -191.72,-23.15 -290.31,-53.28 -98.6,-30.13 -176.96,-38.38 -295.27,-35.88 -18.17,-34.38 -32.04,-48.66 -77.94,-78.51 135.31,-12.84 245.2,-3.11 382.2,18.99 137,22.09 219.1,24.3 293.64,6.41 74.54,-17.89 79.7,-52.34 81.91,-104.55 h 114.45"
       style="fill:#254aa5;fill-opacity:1;fill-rule:evenodd;stroke:none"
       transform="matrix(0.13333333,0,0,-0.13333333,0,604.72)" />
    <path
       id="path8"
       d="m 2267.95,3330.71 c 586.96,0 1062.99,-475.99 1062.99,-1062.99 0,-586.97 -476.03,-1062.97 -1062.99,-1062.97 -586.98,0 -1062.99,476 -1062.99,1062.97 0,587 476.01,1062.99 1062.99,1062.99 z m 0,-35.43 c 567.39,0 1027.55,-460.13 1027.55,-1027.56 0,-567.4 -460.16,-1027.53 -1027.55,-1027.53 -567.41,0 -1027.55,460.13 -1027.55,1027.53 0,567.43 460.14,1027.56 1027.55,1027.56"
       style="fill:#254aa5;fill-opacity:1;fill-rule:evenodd;stroke:none"
       transform="matrix(0.13333333,0,0,-0.13333333,0,604.72)" />
    <path
       id="path9"
       d="m 3482.34,3262.18 c 22.29,-32.62 8.66,-101.61 -22.53,-122.32 -7.79,4.84 -41.9,1.12 -45.9,19.67 -3.41,22.2 16.26,32.83 24.73,53.56 8.05,19.71 4.32,42.83 10.47,59.6 0.32,-0.42 0.63,-0.84 0.94,-1.26 12.65,4.07 20.86,-3.2 32.29,-9.25 z m 153.64,201.14 c 6.59,-8.74 14.58,-17.93 15.27,-25.81 1.58,-18.32 -45.26,-53.3 -70.02,-71.56 -8.23,-6.07 -25.35,-9.37 -28.02,-18.87 13.49,-10.31 27.33,-25.82 43.64,-31.12 2.2,0.99 4.4,1.97 6.61,2.95 3.41,7.07 2.87,14 6.37,20.38 2.94,2.18 5.88,4.37 8.82,6.55 1.09,-1.47 2.18,-2.94 3.28,-4.41 -4.79,-19.69 7.43,-40.88 21.54,-59.27 3.45,-4.49 1.91,-8.89 6.21,-14.94 -2.19,-2.98 -2.03,-2.01 -0.81,-5.49 -4.2,-3.12 -8.4,-6.24 -12.6,-9.35 -4.51,1.27 -10.11,-0.84 -14.43,1 -7.03,6.83 -14.07,13.67 -21.1,20.5 -33.97,17.95 -68.13,45.5 -103.98,51.8 -29.89,-21.47 -93.97,-38.64 -120.99,-29.27 -21.32,7.4 -47.26,48.45 -24.66,64.78 0.21,0.16 0.42,0.31 0.62,0.47 6.61,-2.37 14.42,-2.28 21.18,-4.81 8.64,-7.26 17.3,-14.52 25.95,-21.78 12.78,-7 55.22,-0.19 69.41,6.59 0.78,1.57 1.58,3.13 2.37,4.7 -17.69,38.77 -47.72,33.1 -33.06,80.04 1.03,3.32 3.08,17.38 12.63,17.21 2.48,-0.34 3.79,-2.23 5.94,-5.36 3.89,-12.04 9.75,-28.67 19.92,-36.04 3.65,-4.46 7.29,-8.92 10.93,-13.39 8.3,-5.66 23.54,-19.1 33.03,-19.46 12.52,-0.47 80.58,51.39 87.57,65.05 4.08,8 4.28,25.84 17.87,29.9 3.5,-0.33 7.01,-0.66 10.51,-0.99"
       style="fill:#254aa5;fill-opacity:1;fill-rule:nonzero;stroke:none"
       transform="matrix(0.13333333,0,0,-0.13333333,0,604.72)" />
    <path
       id="path10"
       d="m 3954.73,2985.38 c 12.54,-23.53 -8.94,-45.27 6.42,-66.06 4.15,-0.83 2.93,-3.66 6.75,-6.98 13.83,-12 51.17,-25.24 51.34,-52.82 0.09,-15.21 -27.53,-40.81 -45.51,-32.62 -4.14,3.02 -30.39,34.25 -30.73,37.53 -19.2,14.29 -41.07,23.81 -60.8,34.68 -0.32,-0.49 -0.64,-0.98 -0.96,-1.47 0.26,-0.45 0.52,-0.91 0.78,-1.35 2.88,-9.18 16.08,-21.29 17.19,-34.48 2.91,-34.71 8.22,-71.78 -29.28,-92.12 -4.44,2.74 -11.27,3.84 -15.9,7.13 -9.78,6.96 -26.29,32.68 -36.53,28.75 -13.61,-27.95 -60.36,-8.71 -84.16,-9.62 -3.91,-4.56 -6.59,-8.71 -6.16,-14.44 3.92,-6.8 7.84,-13.59 11.77,-20.39 7.84,-6.04 43.06,-32.26 44.8,-49.34 2.02,-19.88 -22.84,-30.81 -39.31,-24.51 -10.81,19.98 -15.11,40.06 -38.79,54.62 -7.54,4.64 -6.83,10.64 -14.47,12.5 -14.08,-8.03 -22.38,-16.5 -39.2,-26.26 -45.94,21.51 -82.66,54.85 -68.25,111.93 2.87,11.37 6.13,25.56 17.27,34.44 8.17,-15.3 2.53,-34.09 4.02,-49.34 2.91,-5.57 5.82,-11.14 8.73,-16.7 17.99,-31.16 39.79,-37.04 64.43,-42.54 1.46,1.13 2.92,2.28 4.37,3.42 0.81,2.27 1.61,4.55 2.4,6.83 -3.92,6.79 -7.84,13.59 -11.77,20.38 -4.53,4.9 -16.2,14.71 -22.96,19.37 -13.51,9.32 -41.34,64.5 -36.65,77.61 1.79,4.98 6.92,7.97 12.02,10.57 3.35,-1.09 6.7,-2.18 10.04,-3.26 16.52,-11.21 18.75,-41.7 34.82,-58.74 9.49,-10.06 30.59,-19.15 36.56,-35.08 2.95,-1.07 5.58,-1.53 8.58,-2.29 17.27,18.48 28.23,15.51 48.31,15.2 3.95,-0.06 16.86,2.03 17.3,4.55 2.39,10.53 -19.64,20.81 -25.52,26.95 -2.62,4.53 -5.23,9.07 -7.85,13.59 28.95,19.89 40.28,-8.59 61.16,-29.02 8.71,-8.52 22.07,-13.55 31.72,-18.84 8.93,-4.9 26.16,-14.77 34.46,-0.04 3.62,6.43 -0.42,12.46 -0.87,20.34 -2.37,41.61 -54.77,69.27 -84.26,80.02 -11.15,4.07 -33.48,16.26 -46.22,-3.12 0.05,-4.12 -5.28,-17.54 -5.28,-17.54 -11.84,-12.24 -25.21,-9.92 -35.47,-12.33 -3.7,4.51 -5.62,3.99 -9.39,9.98 1.89,3.73 2.52,11.74 2.55,15.98 -5.77,2.58 -9.26,5.37 -12.42,13.67 2.31,9.94 45.55,62.36 56.37,62.45 24.02,-15.86 46.19,-19.87 70.71,-29.86 8.86,-6.97 17.71,-13.94 26.57,-20.91 19.49,-8.54 41.69,-11.43 62.17,-16.66 25.26,-6.45 43.4,-28.94 68.67,-31.04 0.42,0.85 0.84,1.69 1.25,2.54 -0.13,0.23 -0.26,0.45 -0.39,0.68 -16.83,5.64 -55.74,24.76 -50.55,51.46 2.82,14.5 23.82,21.72 20.17,38.84 3.52,1.73 7.06,3.46 10.58,5.2 1.99,-0.9 3.11,-1.37 5.37,-1.44 z m 29.62,80.54 c 1.57,-2.72 3.14,-5.44 4.7,-8.16 -16.82,-18.69 -67.12,-71.85 -99.48,-64.69 -20.56,19.97 7.17,52 31.25,65.16 14.07,-9.23 43.78,6.79 63.53,7.69"
       style="fill:#254aa5;fill-opacity:1;fill-rule:nonzero;stroke:none"
       transform="matrix(0.13333333,0,0,-0.13333333,0,604.72)" />
    <path
       id="path11"
       d="m 3039.32,3658.8 c -9.32,-2.57 -42.3,-22.55 -42.21,-35.44 0.23,-0.13 0.46,-0.26 0.69,-0.4 33.96,-21.45 54.85,3.45 45.6,33.49 -1.36,0.78 -2.72,1.57 -4.08,2.35 z m 154.94,167.9 c 3.26,-2.19 6.53,-4.38 9.8,-6.56 -1.56,-15.76 -13.47,-61.36 -25.26,-75.14 -7.61,-8.89 -33.5,-29.82 -34.44,-40.82 0.06,-0.94 0.12,-1.88 0.18,-2.82 16.87,-9.97 36.19,-9.95 47.5,0.66 6.43,6.03 1.35,12.34 7.28,15.73 8.19,-6.62 41.33,-31.93 41.98,-38.73 0.44,-5.38 -5.66,-11.33 -7.85,-13.59 -33.27,15.91 -60.7,7.5 -92.27,3.43 -10.18,-1.32 -15.96,9.59 -25.09,3.61 -13.52,-8.83 -33.71,-48.17 -41.44,-57.63 0.74,-1.34 1.49,-2.67 2.23,-4 22.92,-9.12 44.21,21.67 63.55,-24.91 5.8,-14 -8.61,-23.9 -14.11,-41.7 -4,-12.94 4.84,-31.6 1.73,-47.21 -6.63,-33.37 -55.16,-21.84 -69.3,-0.77 -9.71,18.8 17.48,57.69 5.62,81.94 -2.3,0.72 -4.6,1.45 -6.9,2.17 -33.55,-20.28 -36.49,-68.94 -60.19,-94.83 -0.58,0.03 -1.17,0.07 -1.75,0.1 -19.74,16.63 -11.73,47.92 -0.17,73.5 5.35,11.8 17.66,12.66 18.42,25.61 -7.84,7.62 -25.12,14.74 -35.48,12.33 -9.55,-2.23 -15.28,-13.84 -24.03,-19.66 -16.05,-10.68 -40.01,-23.18 -58.81,-24.95 -7.12,4.63 -12.26,12.2 -15.78,18.18 7.99,15.24 5,18.83 2.68,32.89 11.98,11.94 27.81,26.86 34.47,47.15 38.63,5.16 75.22,28.66 115.18,26.84 14.37,-0.65 23.56,-26.54 39.44,-16.43 1.44,2.49 2.88,4.98 4.32,7.48 -0.6,3.66 -1.2,7.33 -1.8,11 -8.34,3.06 -14.47,-1.14 -22.09,0.97 -31.12,8.66 -30.02,42.83 -12.87,60.9 0.22,-0.13 0.45,-0.26 0.67,-0.39 9.38,-16.91 39.32,-31.38 59.63,-31.71 6.82,5.37 14.14,12.25 20.93,20.55 5.85,9.61 11.7,19.22 17.55,28.83 11.7,11.01 20.84,19.58 31.27,29.06 4.1,3.73 15.55,31.2 21.01,39.53 1.39,-0.21 2.79,-0.41 4.19,-0.61 z m 58.65,-30.24 c 20.35,-15.68 41.64,-26.6 53.32,-48.91 1.44,-2.74 9.23,-22.89 7.79,-22.62 -8.45,-35.72 -45.52,-31.54 -62.83,-9.94 3.28,7.1 4.47,13.36 0.76,18.59 -2.46,2.03 -4.91,4.05 -7.37,6.07 10.22,20.26 -8.46,41.94 8.33,56.81"
       style="fill:#254aa5;fill-opacity:1;fill-rule:nonzero;stroke:none"
       transform="matrix(0.13333333,0,0,-0.13333333,0,604.72)" />
    <path
       id="path12"
       d="m 2008.67,4051.6 c -1.54,-1.44 -3.08,-2.88 -4.61,-4.32 0.69,-0.64 1.37,-1.28 2.06,-1.93 1.47,0.62 2.94,1.24 4.4,1.85 0.27,1.14 0.54,2.28 0.8,3.42 -0.37,0.45 -0.75,0.9 -1.12,1.34 -0.51,-0.12 -1.02,-0.24 -1.53,-0.36 z m 1.47,10.84 c -0.59,-0.95 -1.17,-1.89 -1.75,-2.84 0.99,-1.91 1.99,-3.83 2.98,-5.74 1.85,1.24 3.7,2.49 5.56,3.74 -0.3,1.27 -0.61,2.54 -0.91,3.81 -0.38,0.45 -0.75,0.9 -1.12,1.35 -1.59,-0.11 -3.18,-0.22 -4.76,-0.32 z m 21.76,37.42 c 20.92,3.88 44.94,-4.54 59.47,-9.27 0.29,-3.55 2.65,-8.57 0.42,-12 -10.13,-26.09 -59.9,-31.41 -73.93,-55.46 11.9,-11.71 22.73,-3.22 38.16,-7.87 22.82,-6.88 74.4,-58.02 51.45,-91.03 -6.09,-8.76 -20.97,-14.8 -28.62,-22.12 -10.17,-9.73 -31.37,2.28 -35.42,-17.28 1.24,-7.51 2.48,-15.01 3.73,-22.51 -5.02,-15.32 -17.44,-24.88 -19.73,-42.59 5.14,-5.16 11.16,-4.39 18.96,-5.18 5.92,5.2 5.46,8.37 6.85,15.34 17.31,4.53 52.04,4.45 65.29,0.17 6.13,-1.97 12.49,-16.81 15.33,-23.78 -2.8,-3.63 -4.12,-10.69 -9.5,-14.35 -19.86,-14.48 -41.85,15.83 -59.8,-2.91 -12.44,-12.98 15.9,-40.82 11.08,-60.28 -11.12,-44.92 -93.8,-33.73 -121.69,-20.83 0.33,0.89 0.66,1.77 0.99,2.66 30.37,20.23 77.53,22.41 83.68,58.58 -1.39,1.2 -1.03,1.07 -2.83,1.75 -22.66,3.15 -40.69,-18.17 -62.65,-18.1 -8.16,0.02 -22.71,-2.52 -30.07,0.93 -3.89,2.84 -7.79,5.68 -11.7,8.51 0.4,1.71 0.81,3.42 1.21,5.13 17.89,3.84 83.21,25.66 85.49,34.01 -0.36,1.52 -0.73,3.05 -1.09,4.57 -6.53,5.82 -7.61,2.43 -13.95,11.21 0.12,8.37 -2.45,14.93 -0.5,22.47 3.29,12.64 11.42,25.66 8.69,41.58 -1.5,1.3 -1.84,1.65 -3.79,2.33 -16.6,5.76 -36.91,-30.74 -51.46,-38.02 -0.12,0.5 -0.24,1.01 -0.36,1.52 -5.51,6.35 -3.57,16.28 -2.57,24.39 3.85,31.19 35.55,47.97 64.73,33.11 17.28,3.65 24.21,13.88 33.39,22.45 7.4,6.9 18.15,13.99 21.98,22.96 12.19,28.55 -31.39,46.48 -49.3,47.99 -29.51,2.49 -48.36,-33.04 -57.47,-46.72 -10.6,-15.9 -20.91,-35.67 -33.34,-49.85 -10.08,-11.5 -19.53,-20.38 -24.96,-34.16 -8.13,-20.59 -5.4,-49.69 -10.37,-71.83 -39.66,-10.34 -56.24,24.13 -59.29,56.1 -0.16,1.56 18.95,21.09 22.59,27.15 6.89,14 13.78,28 20.68,42 9.84,15.19 26.71,29.92 38.96,43.13 18.14,19.55 57.77,42.98 69.3,64.85 -0.06,0.25 -0.12,0.5 -0.18,0.76 -18.56,2.96 -44.31,5.47 -56.3,19.7 0.13,0.57 0.26,1.14 0.4,1.71 46.77,1.86 75.48,28.91 98.04,49.08 z m -179.25,-26.41 c 3.85,-0.57 4.68,-1.68 7.39,-3.9 1.72,-10.76 25.37,-46.84 34.83,-48.19 1.41,-18.2 8.66,-22.61 -5.01,-36.68 -38.77,-3.04 -47.41,15.8 -49.18,57.69 -0.49,11.51 -6.2,16.7 -4.09,24.03 5.35,2.35 10.71,4.7 16.06,7.05"
       style="fill:#254aa5;fill-opacity:1;fill-rule:nonzero;stroke:none"
       transform="matrix(0.13333333,0,0,-0.13333333,0,604.72)" />
    <path
       id="path13"
       d="m 2570.35,3930.28 c -20.61,-6.44 -29.22,-21.57 -43.08,-37.14 -18.62,-20.93 -60.64,-57.43 -41.79,-98.69 9.09,-19.9 37.27,-44.02 68.8,-35.02 7.72,2.2 9.15,-0.59 14.35,4.68 -8.61,16.75 -17.85,60.94 -31.4,71.55 0.34,0.47 0.69,0.94 1.03,1.41 8.77,-1.52 17.53,-3.03 26.3,-4.55 9.89,-5.75 43.43,-28.17 52.21,-24.98 5.93,21.43 21.55,50.3 11.03,68.18 -2.63,0.19 -5.25,0.37 -7.87,0.57 -9.19,-5.11 -14.31,-20.65 -23.39,-24.63 -8.69,-3.81 -11.78,12.21 -12.91,17.38 -4.53,20.63 1.22,32.94 1.28,57.91 -4.86,1.11 -9.71,2.22 -14.56,3.33 z m 92.72,93.84 c -8.61,-13.46 -23.32,-36 -24.07,-51.58 0.47,-0.35 0.94,-0.7 1.41,-1.04 11.85,-1.95 40.13,6.03 48.2,11.55 2.8,16.7 -12.77,30.64 -20.9,40.27 -1.55,0.27 -3.09,0.53 -4.64,0.8 z m -26.77,70.74 c 24.65,-4.07 37.47,-15.33 34.99,-37.12 -0.82,-7.15 -8.24,-14.49 -4.02,-23.2 9.21,-19.04 40.74,-31.35 66.57,-38.62 -0.1,-3.7 -0.21,-7.39 -0.32,-11.09 -13.16,-17.84 -43.03,-21.16 -61.36,-32.38 -5.89,-3.6 -9.35,-12.42 -16.1,-14.73 -19.2,-6.58 -37.46,0.46 -43.38,-25.14 10.77,-15.28 42.92,-14.67 49.2,-33.21 3.03,-8.96 -0.14,-45.8 -6.05,-57.89 -3.18,-6.51 -13.9,-24.02 -11.44,-33.86 4.67,-12.04 22.67,-14.7 32.62,-23.17 14.5,-12.35 25.25,-23.64 27.95,-45.47 2.52,-20.21 -24.92,-39.77 -47.54,-30.78 -13.72,5.44 -20.01,22.82 -29.2,33.73 -3.58,4.25 -11.71,6.96 -16.58,10.03 -5.52,3.5 -29.86,-3.27 -32.53,-3.91 -4.69,0.54 -9.37,1.09 -14.06,1.64 -19.53,-2.58 -41.59,-3.99 -62.93,4.53 -1.22,13.64 -10.62,30.38 -19.49,39.22 -1.03,0.18 -2.06,0.36 -3.09,0.53 -0.6,-0.42 -1.21,-0.85 -1.81,-1.27 -2,-12.29 6.92,-58.66 -4.27,-61.39 -6.26,-1.53 -15.8,8.41 -17.99,11.08 -8.09,9.9 -6.18,26.21 -10.2,37.61 -6.61,9.38 -13.22,18.75 -19.82,28.13 -2.57,7.53 2.4,15.81 -2.71,21.17 -6.41,6.75 -52.11,-10.48 -71.1,-1.21 -11.02,5.38 -29.62,29.56 -14.81,43.18 6.87,4.39 13.74,8.77 20.6,13.16 4.91,6.52 -0.3,19.87 4.55,26.29 8.81,-0.65 23.5,-7.95 36.98,-7.2 14.15,0.78 71.86,12.02 78.45,20.65 4.76,16.69 9.51,33.4 14.26,50.1 5.72,11.01 16.05,14.93 18.78,30.19 -2.06,1.61 -2.19,2.32 -3.2,4.54 -20.04,3.5 -32.5,5.59 -48.71,8.44 -2.49,5.01 -7.05,8.49 -9.59,13.61 0.68,5.16 0.41,6.16 2.37,9.15 1.86,2.53 -0.25,0.98 2.72,1.91 9.71,0.85 11.1,-8.07 20.35,-6.71 12.47,1.84 52.63,11.64 60.63,18.96 17.14,15.69 15.98,46.46 36.88,56.53 14.31,-2.3 22,-6.5 32.58,-9.63 0.1,-2.02 -1.3,-2.36 2.56,-3.62 -7.89,-23.03 -31.46,-29.78 -43.91,-46.55 -15.12,-20.36 -18.7,-50.22 -28.5,-77.11 -1.84,-5.06 -10.61,-19.2 -9.83,-24.57 19.66,-5.32 17.58,21.9 32.42,26.23 15.11,1.25 33.94,-3.96 42.49,6.18 9.34,11.11 4.19,27.41 11.1,41.09 7.82,15.47 18.57,33.73 23.81,50.04 5.84,18.2 -15.99,24.42 1.68,41.91"
       style="fill:#254aa5;fill-opacity:1;fill-rule:nonzero;stroke:none"
       transform="matrix(0.13333333,0,0,-0.13333333,0,604.72)" />
    <path
       id="path14"
       d="m 694.074,2809.18 c 3.11,-19.48 9.563,-30.2 18.653,-45.63 13.492,-3.77 14.66,3.34 22.55,5.33 7.141,-1.64 14.286,-3.28 21.43,-4.92 1.906,0 0.258,-0.97 2.477,0.14 6.226,1.03 9.687,10.06 10.031,19.25 -10.906,12.26 -33.649,32.31 -58.149,28.58 -9.168,-1.39 -10.242,3.94 -16.992,-2.75 z m -7.484,166.11 c 4.574,-41.21 -32.074,-64.74 25.887,-79.24 8.269,-2.07 13.609,-1.14 19.058,1.39 0.07,0.26 0.137,0.51 0.207,0.76 -15.922,28.73 -16.851,59.73 -38.871,88.41 -2.547,-0.34 -0.902,0.25 -2.676,-0.91 -1.203,-3.47 -2.406,-6.94 -3.605,-10.41 z m -169.957,-88.51 c 4.66,15.95 60.105,62.11 72.668,65.02 20.039,0.05 37.074,-21.59 57.961,-17.15 14.722,23.36 11.953,56.09 14.562,84.65 1.762,19.35 13.781,43.62 28.309,41.98 19.582,-20.16 29.871,-48.24 37.57,-75.07 4.125,-14.37 4.176,-38.51 20.367,-45.26 1.602,0.92 3.207,1.84 4.809,2.77 12.074,5.12 16.633,36.62 24.422,48.7 5.242,1.15 14.32,6.58 22.094,0.58 12.976,-12.21 2.406,-29.8 0.699,-48.93 -1.977,-22.1 15.015,-41.64 20.648,-62.41 2.578,-9.49 -1.433,-15.92 1.086,-26.28 5.203,-21.45 47.242,-14.82 63.86,-28.49 6.468,-5.33 5.628,-14.87 10.691,-20.74 9.105,-10.57 25.758,-9.1 37.184,-18.9 4.355,-4.96 8.714,-9.92 13.074,-14.88 -0.067,-0.25 -0.133,-0.51 -0.203,-0.76 -23.571,5.71 -52.192,-3.59 -72.649,-7.34 -13.055,-2.39 -31.004,9.46 -44.633,6.27 -2.078,-6.75 -4.156,-13.51 -6.238,-20.26 -16.777,-2.88 -39.332,-1.79 -49.207,-16.88 -5.559,-8.49 2.035,-15.36 -4.781,-23.91 -5.52,-0.65 -15.504,-0.51 -20.985,-2.5 -10.722,-3.89 -17.343,-15.75 -29.242,-18.17 -13.152,-2.65 -23.886,14.18 -33.109,0.76 -1.516,0.4 -3.031,0.81 -4.551,1.22 -4.476,14.65 -36.926,16.57 -54.816,22.81 6.832,14.28 20.265,13.29 26.113,24.69 6.269,12.21 -5.211,22.03 -7.297,30.39 -6.117,24.56 -3.48,53.78 -11.687,74.63 -8.707,2.88 -17.414,5.75 -26.122,8.62 -10.746,2.34 -21.5,4.68 -32.246,7.02 -6.785,3.97 -12.539,10.41 -18.433,13.06 -14.86,6.68 -30.098,3.27 -39.567,13.04 -0.117,0.57 -0.238,1.14 -0.351,1.72"
       style="fill:#254aa5;fill-opacity:1;fill-rule:nonzero;stroke:none"
       transform="matrix(0.13333333,0,0,-0.13333333,0,604.72)" />
    <path
       id="path15"
       d="m 1054.82,3360.3 c 0.66,-4.36 2.09,-9.04 5.55,-13.31 6.67,-2.3 13.41,-5.85 19.98,-6.66 0.19,0.19 0.37,0.37 0.56,0.56 -0.55,3.14 -1.11,6.28 -1.67,9.43 -7.51,8.64 -9.33,13.39 -18.31,14.98 -2.04,-1.66 -4.07,-3.33 -6.11,-5 z m -67.14,-61.59 c -2.676,-10.67 -3.828,-15.57 -1.11,-26.64 0.371,0.38 0.739,0.74 1.11,1.11 1.297,0.19 2.593,0.38 3.883,0.56 2.515,8.08 2.23,14.56 3.332,22.2 -1.11,1.1 -2.223,2.22 -3.332,3.33 -1.29,-0.19 -2.586,-0.37 -3.883,-0.56 z m 21.09,35.51 c 0.74,-3.32 1.48,-6.65 2.22,-9.98 3.17,-3.12 3.7,-3.4 6.65,-3.33 0.19,0.93 0.38,1.85 0.56,2.77 -0.18,2.04 -0.37,4.07 -0.55,6.11 -3,3.15 -5.19,4.67 -7.77,5.55 -0.37,-0.38 -0.74,-0.75 -1.11,-1.12 z m -79.356,179.24 c -12.019,-15.34 -24.047,-30.7 -36.07,-46.05 -19.246,-35.4 -16.785,-76.22 -7.77,-112.1 1.918,-7.63 10.442,-35.66 20.535,-39.4 0.922,-0.18 1.848,-0.36 2.774,-0.55 13.019,17.77 3.058,100.63 46.055,98.22 21.785,7.23 34.031,-40.62 43.843,-51.61 14.409,1.36 38.609,2.12 50.499,17.2 -2,4.4 -1.98,7.13 2.77,11.66 17.79,2.63 32.76,14.39 49.94,7.77 4.44,-4.44 8.88,-8.88 13.32,-13.32 -0.61,-14.01 -3.97,-28.13 -6.1,-43.83 -4.66,-34.37 -3.53,-69.09 -22.2,-104.34 -6.2,-11.7 -16.34,-16.61 -24.42,-24.41 -13.52,5.19 -22.08,6.36 -37.73,22.2 0.37,9.99 0.74,19.98 1.1,29.96 -1.29,0.93 -2.58,1.85 -3.87,2.78 -4.62,0.7 -4.58,-9.15 -10.55,-11.66 -13.778,-5.78 -31.384,-12.55 -43.282,4.44 -1.688,2.42 -6.856,5 -6.656,8.88 -2.672,14.77 33.746,84.84 0.554,87.12 -0.371,0.37 -0.742,0.74 -1.113,1.11 -7.789,-14.97 -36.992,-53.49 -33.848,-67.14 0.481,-9.21 15.899,-15.66 19.977,-27.75 9.242,-27.43 47.09,-67.59 75.468,-89.89 9.72,-7.64 7.43,-16.37 17.2,-19.42 8.26,7.91 16,2.93 24.42,6.65 10.87,4.81 36.2,43.57 44.39,56.6 -0.74,0.74 -1.48,1.48 -2.22,2.22 -3.9,-0.9 -6.49,2 -8.88,3.33 -0.18,0.56 -0.37,1.12 -0.55,1.67 10.32,9.46 27.37,3.89 33.85,19.42 3.32,7.96 -1.84,15.37 1.67,23.87 13.65,5.51 37.84,4.52 46.61,23.3 19.48,41.75 -58.1,127.68 -104.33,157.6 -7.05,4.56 -21.91,23.1 -32.18,27.74 -6.29,5.92 -12.58,11.84 -18.87,17.76 -23.29,14.19 -44.902,35.31 -68.254,41.62 -7.379,-5.2 -16.961,-12.47 -26.082,-21.65 z m -29.965,1.11 c 20.574,21 41.391,41.24 62.153,44.4 49.388,7.5 98.968,-47.92 145.388,-94.34 15.72,-15.72 31.44,-31.45 47.17,-47.17 25.75,-33.07 76.51,-57.9 85.46,-95.44 3.71,-15.61 -9.6,-88.22 -39.41,-94.89 -14.3,-3.21 -48.42,5.99 -60.48,-14.99 -3.44,-5.97 -4.59,-13.98 -6.66,-21.08 -1.41,-4.85 -36.59,-52.32 -45.5,-56.6 -10.81,-5.2 -19.66,-2.02 -29.97,-3.33 -3.8,-10.47 2.4,-18.35 -7.77,-28.86 -0.18,-0.18 -0.37,-0.37 -0.55,-0.56 -10.13,2.37 -22.52,4.63 -33.85,8.33 -3.41,1.12 -25.496,22.47 -27.192,27.19 -7.304,20.3 -24.285,42.87 -37.738,63.26 -11.52,17.46 -29.285,27.35 -38.84,33.3 -9.621,7.76 -19.242,15.53 -28.859,23.31 -6.942,4.6 -21.988,12.87 -28.301,23.85 -30.531,53.18 -18.777,76.28 -11.098,128.75 2.469,16.86 14.661,33.63 18.868,49.94 1.847,1.85 3.699,3.7 5.546,5.55 4.797,8.62 12.528,22.6 16.649,32.18 5,5.74 9.992,11.47 14.984,17.2"
       style="fill:#254aa5;fill-opacity:1;fill-rule:nonzero;stroke:none"
       transform="matrix(0.13333333,0,0,-0.13333333,0,604.72)" />
    <path
       id="path16"
       d="m 1375.62,3593.76 c 0.31,-12.65 -5.54,-47.1 -0.32,-56.59 0.43,0.29 0.87,0.57 1.31,0.86 1.75,1.15 3.49,2.3 5.24,3.45 0.53,17.42 22.74,34.7 2.48,53.32 -1.81,0.37 -3.62,0.74 -5.43,1.12 -1.1,-0.72 -2.19,-1.44 -3.28,-2.16 z M 1501.39,3701 c -2.22,-13.01 -10.87,-24.56 -11.75,-37.81 0.86,-1.31 1.73,-2.62 2.59,-3.93 0.94,-0.01 1.88,-0.01 2.83,-0.02 10.9,7.49 29.64,34.2 15.25,41.05 -4.38,2.09 -3.42,3.5 -8.92,0.71 z m -143.54,-55.99 c -2.55,-2.31 -5.11,-4.62 -7.66,-6.92 0.79,-1.68 1.58,-3.35 2.36,-5.02 5.33,0.59 9.62,-0.06 14.39,3.84 0.45,2.17 0.9,4.34 1.35,6.52 -1.81,1.31 -3.61,2.63 -5.42,3.95 -1.67,-0.79 -3.35,-1.58 -5.02,-2.37 z m 199.49,132.28 c -0.55,-3.62 -0.5,-6.2 1.24,-10.45 0.5,-0.3 1.01,-0.59 1.52,-0.88 1.82,2.45 3.65,4.91 5.48,7.37 -0.5,1.23 -1,2.47 -1.51,3.7 -1.14,0.81 -2.3,1.61 -3.46,2.42 -1.09,-0.72 -2.19,-1.44 -3.27,-2.16 z m -161.84,-95.27 c -8.54,-14.51 -16.66,-43.5 7.08,-56.42 0.73,0.79 1.46,1.59 2.18,2.38 5.9,15.13 13.05,47.02 6.03,62.22 -4.47,-1.44 -9.86,-4.5 -15.29,-8.18 z m 72.08,83.16 c -1.15,-3.08 -2.04,-4.08 -1.56,-7.61 0.43,-1.6 0.85,-3.19 1.28,-4.79 2.1,-0.82 4.19,-1.62 6.3,-2.43 1.24,1.44 2.48,2.88 3.72,4.33 -2.67,5.78 -1.51,9.04 -6.02,12.01 -1.24,-0.51 -2.48,-1.01 -3.72,-1.51 z m -88.38,-41.28 c -3.12,-8.23 -9.08,-22.74 -0.18,-31.13 1.68,0.79 3.35,1.59 5.02,2.37 4.24,9.63 6.6,16.48 5.6,27.18 -4.33,5.25 -6.64,2.62 -10.44,1.58 z m 34.16,187.86 c 21.91,14.28 75.32,-16.35 92.31,-33.18 9.84,-9.73 4.6,-23.55 15.94,-29.91 14.64,-8.2 32,-8.13 46.71,-15.29 8.98,-4.36 15.44,-15.2 24.72,-17.55 12.81,-3.24 28.35,5.23 40.46,-1.54 4.28,-2.2 5.97,-6.76 6.26,-10.91 -13.55,-22.89 -53.74,-52.11 -50.73,-78.51 2.61,-22.94 22.43,-36.56 29.04,-59.8 7.72,-20.29 15.44,-40.58 23.16,-60.86 1.13,-4.53 1.97,-19.75 6.18,-22.24 1.22,-8.98 0.82,-19.45 1.58,-28.09 0.78,-8.95 10.42,-18.9 8.56,-24.43 -0.28,0.44 -0.57,0.88 -0.85,1.32 -24.36,2.86 -44.91,24.88 -63.72,48.25 -15.39,19.11 -25.78,51.07 -41.88,60.75 -0.58,-0.07 -1.16,-0.14 -1.74,-0.21 -30.32,-21.77 -34.92,-53.22 -75.28,-71.18 -10.19,10.35 -35,34.42 -32.15,50.25 1.99,11.03 11.6,20.68 11.72,32.14 -1.28,4.8 -2.56,9.6 -3.83,14.39 -0.44,8.33 2.35,18.23 3.2,26.54 0.77,7.5 -11.48,44.28 -21.53,41.26 -8.78,-2.64 -8.49,-30.83 -8.27,-37.39 0.55,-16.57 6.45,-33.82 7.11,-50.76 1.31,-33.92 -15.02,-41.11 2.58,-80.98 8,-18.1 54.23,-50.13 52.55,-58.42 -0.14,-1.66 -0.3,-3.33 -0.46,-5 -5.35,-3.91 -6.75,-5.1 -11.35,-5.59 -10.52,4.15 -23.11,8.78 -32.77,16.94 -8.68,7.35 -13.07,16.76 -22.29,21.03 -0.8,-0.22 -1.6,-0.43 -2.4,-0.64 -15.41,-28.74 -9.01,-59.99 -55.55,-82.61 -2.17,0.44 -4.35,0.89 -6.51,1.34 -7.33,10.63 -30.3,33.64 -29.99,46.97 2.6,10.79 5.2,21.59 7.8,32.38 2.6,26.84 2.45,53.53 5.69,79.85 -0.94,0.95 -1.88,1.9 -2.82,2.85 -0.58,-0.07 -1.16,-0.14 -1.74,-0.21 -9.01,-13.01 -32.02,-44.52 -50.55,-47.38 -24.84,36.92 0.92,73.71 9.09,104.65 4.62,17.54 17.52,83.78 14.28,99.6 -2.57,12.55 -11.31,18.66 -13.54,30.55 11.5,13.15 24.97,12.68 38.62,16.98 11.75,-20.76 3.34,-35.06 1.64,-55.3 -3.41,-40.87 -19.62,-82.89 -30.3,-122.36 -2.99,-11.09 -8.67,-21.11 -9.54,-32.6 1.3,-1.03 2.6,-2.05 3.9,-3.07 5.04,4.26 60.31,58.22 61.29,61.03 8.89,25.56 -30.12,87.06 20.13,95 8.2,-4.56 31.79,-15.39 40.83,-16.34 0.66,0.43 1.31,0.86 1.97,1.29 7.53,27.53 -1.34,30.63 -23.46,45.63 1.53,13.9 4.58,22 13.91,34.53 12.59,-7.63 23.19,-10.74 36.07,-9.14 11.47,23.73 -42.32,67.58 -34.05,95.97"
       style="fill:#254aa5;fill-opacity:1;fill-rule:nonzero;stroke:none"
       transform="matrix(0.13333333,0,0,-0.13333333,0,604.72)" />
  </g>
</svg>
