<svg xmlns="http://www.w3.org/2000/svg" width="248" height="116" viewBox="0 0 248 116">
 <g transform="matrix(1.33 0 0 -1.33 -667 664)">
  <g>
   <path d="m531 448c-0.594 0.553-0.982 1.27-0.982 2.17 0 1.34 0.858 2.28 1.98 2.86-7.18 3.36-19.3 6.1-30.9 7.45 17.6 6.89 32.6 6.61 32.6 6.61-8.19 2.98-28.1 3.84-28.1 3.84 13.1 4.11 25.4 7.47 35.4 7.03-8.09 2.85-21.7 5.32-21.7 5.32s24.8 7.1 39 4.95l-20.3 8.27c57.3 4.31 75.8-11.1 87.5-29.2l0.55-0.848 6.8 3.12-1.05-7.93 1.17-0.149c18.3-2.36 43.5-7.58 52.7-31.6-30.4 5.96-65.2-3.42-95.3-17.8-21.8 16.7-43.5 24.2-76 30z" fill="#fff"/>
   <path d="m558 494c-1.49-0.0164-3.01-0.0574-4.56-0.123 0 0 17.6-6.83 23.5-15.1 0 0-14.7 11.3-43.3 4.55 0 0 21.7-4.82 27.6-13.6 0 0-14.9 9.37-38.1 2.83 0 0 16.5-1.47 24.4-9.85 0 0-16.4 3.69-33.2-1.48 0 0 20.5-1.93 28-12.6l-18-5.85c33.2-4.17 58.1-20.9 66.3-27 29 13.4 61.3 22.3 88.7 18.2-9.36 18.4-32.6 22.3-51.5 24.8l0.813 5.45-4.23-1.94c-4.56 9.53-20.3 32.1-66.4 31.6zm42.6-34.1 4.66-2.83c-0.483-0.419-0.886-0.915-1.17-1.46-1.14-2.19-0.0756-4.49 2.38-5.13 2.2-0.584 4.78 0.369 6.11 2.15l1.52-0.918c-3.04-2.62-8.55-5.49-14-1.72-4.39 3.05-2.41 8.28 0.483 9.9zm30.6-6.37c16.7-2.23 31.1-5.99 38.7-14.1 0 0-38.5 4.36-64.3 1.12 2.99 2.44 10.9 8 25.5 12.9zm-96.5-1.76-0.527-3.09h0.801l0.258 1.78h0.00586l0.709-1.78h0.318l0.746 1.78h0.00293l0.23-1.78h0.8l-0.466 3.09h-0.801l-0.665-1.65-0.623 1.65h-0.788zm-2.84-0.00293v-0.677h0.666v-2.41h0.801v2.41h0.661v0.677h-2.13zm99.6-0.694c-0.259-9.9e-4 -0.517-0.00698-0.772-0.0176-1.75-0.464-7.25-3.16-8.26-3.73 0 0 10.8 1.89 20.1 1.4-2.87 1.35-7.22 2.36-11.1 2.35zm8.34-13.9c-8.27-1.23-15.5-3.09-23.8-5.42-5.42 1.44-8.9 3.96-10.6 5.41l34.3 0.0132z" fill="#0b2240"/>
   <path d="m587 472c-2.78-0.0319-4.55-0.242-4.55-0.242 27.6-5.25 35.5-17.2 35.5-17.2l-3.43 16.2-2.58-5.24c-7.83 5.77-18.8 6.56-25 6.49zm1.1-8.95c-13.9 0.00829-29.7-7.61-37.6-18.4 14.7 8.52 26.6 9.42 31.3 9.47-0.508-0.95-0.238-5.21 2.59-7.4 5.68-4.38 14.5-3.35 18.4-1.37-7.5 0.826-13 4.55-11.1 11.9 0.429 1.6 1.98 3.45 3.97 5.01-2.39 0.553-4.91 0.817-7.49 0.819zm5.05-25-8.96-10.7 13.5 8.1-4.57 2.62zm7.08-4.39-11-11.1 18.7 6.51-7.7 4.62z" fill="#e14504"/>
  </g>
 </g>
</svg>